HIERARCHY
ROOT Hips
{
	OFFSET 0.00000 0.00000 0.00000
	CHANNELS 6 Xposition Yposition Zposition Zrotation Yrotation Xrotation 
	JOINT LHipJoint
	{
		OFFSET 0 0 0
		CHANNELS 3 Zrotation Yrotation Xrotation
		JOINT LeftHip
		{
			OFFSET 1.55020 -1.87941 0.79896
			CHANNELS 3 Zrotation Yrotation Xrotation
			JOINT LeftKnee
			{
				OFFSET 2.65269 -7.28822 0.00000
				CHANNELS 3 Zrotation Yrotation Xrotation
				JOINT LeftAnkle
				{
					OFFSET 2.61200 -7.17641 0.00000
					CHANNELS 3 Zrotation Yrotation Xrotation
					JOINT LeftToe
					{
						OFFSET 0.09338 -0.25656 1.92461
						CHANNELS 3 Zrotation Yrotation Xrotation
						End Site
						{
							OFFSET 0.00000 -0.00000 0.98480
						}
					}
				}
			}
		}
	}
	JOINT RHipJoint
	{
		OFFSET 0 0 0
		CHANNELS 3 Zrotation Yrotation Xrotation
		JOINT RightHip
		{
			OFFSET -1.56866 -1.87941 0.79895
			CHANNELS 3 Zrotation Yrotation Xrotation
			JOINT RightKnee
			{
				OFFSET -2.60199 -7.14892 0.00000
				CHANNELS 3 Zrotation Yrotation Xrotation
				JOINT RightAnkle
				{
					OFFSET -2.62841 -7.22151 0.00000
					CHANNELS 3 Zrotation Yrotation Xrotation
					JOINT RightToe
					{
						OFFSET -0.19532 -0.53663 1.93132
						CHANNELS 3 Zrotation Yrotation Xrotation
						End Site
						{
							OFFSET -0.00000 -0.00000 1.00896
						}
					}
				}
			}
		}
	}
	JOINT lowerback
	{
		OFFSET 0 0 0
		CHANNELS 3 Zrotation Yrotation Xrotation
		JOINT Chest
		{
			OFFSET 0.06381 2.07806 -0.22112
			CHANNELS 3 Zrotation Yrotation Xrotation
			JOINT Chest2
			{
				OFFSET -0.02881 2.08890 0.01825
				CHANNELS 3 Zrotation Yrotation Xrotation
				JOINT lowerneck
				{
					OFFSET 0 0 0
					CHANNELS 3 Zrotation Yrotation Xrotation
					JOINT Neck
					{
						OFFSET 0.02418 1.74325 -0.02023
						CHANNELS 3 Zrotation Yrotation Xrotation
						JOINT Head
						{
							OFFSET -0.01704 1.71677 0.04090
							CHANNELS 3 Zrotation Yrotation Xrotation
							End Site
							{
								OFFSET -0.00946 1.78238 0.01684
							}
						}
					}
				}
				JOINT LeftCollar
				{
					OFFSET 0 0 0
					CHANNELS 3 Zrotation Yrotation Xrotation
					JOINT LeftShoulder
					{
						OFFSET 3.39783 1.34157 0.16610
CHANNELS 3 Zrotation Xrotation Yrotation
						JOINT LeftElbow
						{
OFFSET 0 -5.152180 0.000000
CHANNELS 3 Zrotation Xrotation Yrotation
							JOINT LeftWrist
							{
OFFSET 0 -3.494590 0.000000
CHANNELS 3 Zrotation Xrotation Yrotation
								JOINT lhand
								{
									OFFSET 0 0 0
CHANNELS 3 Zrotation Xrotation Yrotation
									JOINT LFingers
									{
OFFSET 0 -0.512470 0.000000
CHANNELS 3 Zrotation Xrotation Yrotation
										End Site
										{
OFFSET 0 -0.413160 0.000000
										}
									}
								}
								JOINT LThumb
								{
OFFSET 0 0.000000 0.000000
CHANNELS 3 Zrotation Xrotation Yrotation
									End Site
									{
OFFSET 0 -0.419470 0.419470
									}
								}
							}
						}
					}
				}
				JOINT RightCollar
				{
					OFFSET 0 0 0
					CHANNELS 3 Zrotation Yrotation Xrotation
					JOINT RightShoulder
					{
						OFFSET -3.26224 1.05509 0.01188
CHANNELS 3 Zrotation Xrotation Yrotation
						JOINT RightElbow
						{
OFFSET 0 -5.443440 0.000000
CHANNELS 3 Zrotation Xrotation Yrotation
							JOINT RightWrist
							{
OFFSET 0 -3.584030 0.000000
CHANNELS 3 Zrotation Xrotation Yrotation
								JOINT rhand
								{
									OFFSET 0 0 0
CHANNELS 3 Zrotation Xrotation Yrotation
									JOINT RFingers
									{
OFFSET 0 -0.342490 0.000000
CHANNELS 3 Zrotation Xrotation Yrotation
										End Site
										{
OFFSET 0 -0.276120 0.000000
										}
									}
								}
								JOINT RThumb
								{
OFFSET 0 0.000000 0.000000
CHANNELS 3 Zrotation Xrotation Yrotation
									End Site
									{
OFFSET 0 -0.280340 0.280340
									}
								}
							}
						}
					}
				}
			}
		}
	}
}
MOTION
Frames: 9
Frame Time: 0.008333333333333333
-9.874300 16.287800 3.924400 -158.687000 -83.568700 154.618000 0.000000 0.000000 0.000000 -14.036800 -0.268100 -20.369800 10.379500 17.617800 60.749500 0.977600 -20.114800 -21.198600 0.667600 -5.225200 -14.552000 0.000000 0.000000 0.000000 19.190700 7.447500 -18.396600 -9.956900 -17.385500 59.344100 -3.047600 6.586400 -31.749000 -0.645700 5.140300 -14.309300 4.384400 -0.513100 13.154200 -0.710400 -0.147400 1.151000 -3.202200 -0.222600 -6.179700 2.485000 3.246300 2.726700 -2.064800 4.356800 -3.457600 -1.147400 2.180600 -1.430200 -0.000000 0.000000 0.000000 32.696800 -10.246100 -38.449800 71.071300 -58.601900 43.684200 -16.261300 22.402100 -5.817400 0.000000 0.000000 0.000000 -7.125000 0.000000 0.000000 -33.916700 33.832800 -11.014800 -0.000000 0.000000 0.000000 -27.695900 -16.209100 44.626800 -68.039400 -58.096900 -41.103100 34.259300 23.210800 21.493600 0.000000 0.000000 0.000000 7.125000 0.000000 -0.000000 53.941100 44.141900 1.690700
-9.874207 16.287813 3.924400 -158.676115 -83.569398 154.607683 0.000000 0.000000 0.000000 -14.035678 -0.270007 -20.370261 10.379447 17.617773 60.749323 0.976602 -20.119434 -21.194266 0.665466 -5.216799 -14.528000 0.000000 0.000000 0.000000 19.191568 7.447023 -18.397992 -9.956940 -17.385523 59.344244 -3.047533 6.584076 -31.748893 -0.646311 5.142667 -14.316065 4.385048 -0.513634 13.151228 -0.709766 -0.148181 1.152766 -3.201733 -0.222894 -6.176231 2.479815 3.244944 2.723177 -2.058416 4.354934 -3.456999 -1.144388 2.179598 -1.429652 0.000000 0.000000 0.000000 32.696780 -10.249766 -38.449406 71.070986 -58.601853 43.683933 -16.262585 22.405399 -5.812979 0.000000 0.000000 0.000000 -7.125000 0.000000 0.000000 -33.915945 33.828847 -11.018463 0.000000 0.000000 0.000000 -27.695716 -16.210102 44.626212 -68.039233 -58.096870 -41.102956 34.267080 23.205681 21.494171 0.000000 0.000000 0.000000 7.125000 0.000000 0.000000 53.945738 44.140982 1.692844
-9.874113 16.287827 3.924400 -158.665230 -83.570096 154.597366 0.000000 0.000000 0.000000 -14.034556 -0.271913 -20.370722 10.379393 17.617747 60.749146 0.975603 -20.124069 -21.189932 0.663333 -5.208399 -14.504000 0.000000 0.000000 0.000000 19.192436 7.446545 -18.399385 -9.956980 -17.385547 59.344387 -3.047466 6.581752 -31.748786 -0.646922 5.145035 -14.322829 4.385695 -0.514168 13.148257 -0.709131 -0.148963 1.154533 -3.201265 -0.223188 -6.172762 2.474629 3.243589 2.719655 -2.052032 4.353067 -3.456398 -1.141377 2.178597 -1.429105 0.000000 0.000000 0.000000 32.696760 -10.253432 -38.449012 71.070672 -58.601807 43.683666 -16.263871 22.408698 -5.808559 0.000000 0.000000 0.000000 -7.125000 0.000000 0.000000 -33.915191 33.824893 -11.022126 0.000000 0.000000 0.000000 -27.695533 -16.211103 44.625625 -68.039066 -58.096840 -41.102813 34.274859 23.200563 21.494742 0.000000 0.000000 0.000000 7.125000 0.000000 0.000000 53.950375 44.140064 1.694987
-9.874020 16.287840 3.924400 -158.654346 -83.570793 154.587048 0.000000 0.000000 0.000000 -14.033434 -0.273820 -20.371182 10.379340 17.617720 60.748969 0.974605 -20.128703 -21.185598 0.661199 -5.199998 -14.480000 0.000000 0.000000 0.000000 19.193304 7.446068 -18.400777 -9.957020 -17.385570 59.344531 -3.047400 6.579428 -31.748679 -0.647533 5.147402 -14.329594 4.386343 -0.514703 13.145285 -0.708497 -0.149744 1.156299 -3.200798 -0.223481 -6.169293 2.469444 3.242233 2.716132 -2.045648 4.351201 -3.455797 -1.138365 2.177595 -1.428557 0.000000 0.000000 0.000000 32.696740 -10.257098 -38.448618 71.070358 -58.601760 43.683399 -16.265156 22.411996 -5.804138 0.000000 0.000000 0.000000 -7.125000 0.000000 0.000000 -33.914436 33.820940 -11.025788 0.000000 0.000000 0.000000 -27.695349 -16.212105 44.625037 -68.038899 -58.096810 -41.102669 34.282639 23.195444 21.495313 0.000000 0.000000 0.000000 7.125000 0.000000 0.000000 53.955013 44.139145 1.697131
-9.873926 16.287853 3.924400 -158.643461 -83.571491 154.576731 0.000000 0.000000 0.000000 -14.032313 -0.275726 -20.371643 10.379286 17.617693 60.748792 0.973607 -20.133338 -21.181264 0.659066 -5.191597 -14.456000 0.000000 0.000000 0.000000 19.194172 7.445590 -18.402169 -9.957060 -17.385593 59.344674 -3.047333 6.577105 -31.748573 -0.648144 5.149769 -14.336358 4.386991 -0.515237 13.142314 -0.707862 -0.150525 1.158065 -3.200330 -0.223775 -6.165824 2.464259 3.240878 2.712610 -2.039264 4.349334 -3.455196 -1.135353 2.176593 -1.428010 0.000000 0.000000 0.000000 32.696720 -10.260764 -38.448224 71.070045 -58.601713 43.683132 -16.266442 22.415295 -5.799717 0.000000 0.000000 0.000000 -7.125000 0.000000 0.000000 -33.913682 33.816987 -11.029451 0.000000 0.000000 0.000000 -27.695165 -16.213107 44.624449 -68.038732 -58.096780 -41.102526 34.290419 23.190326 21.495884 0.000000 0.000000 0.000000 7.125000 0.000000 0.000000 53.959651 44.138227 1.699274
-9.873833 16.287867 3.924400 -158.632576 -83.572189 154.566414 0.000000 0.000000 0.000000 -14.031191 -0.277633 -20.372104 10.379233 17.617666 60.748615 0.972608 -20.137972 -21.176931 0.656932 -5.183197 -14.432000 0.000000 0.000000 0.000000 19.195041 7.445113 -18.403562 -9.957100 -17.385617 59.344818 -3.047266 6.574781 -31.748466 -0.648755 5.152136 -14.343123 4.387639 -0.515771 13.139342 -0.707228 -0.151307 1.159831 -3.199863 -0.224069 -6.162354 2.459073 3.239522 2.709087 -2.032880 4.347468 -3.454595 -1.132342 2.175592 -1.427462 0.000000 0.000000 0.000000 32.696700 -10.264431 -38.447830 71.069731 -58.601666 43.682864 -16.267727 22.418594 -5.795296 0.000000 0.000000 0.000000 -7.125000 0.000000 0.000000 -33.912927 33.813034 -11.033114 0.000000 0.000000 0.000000 -27.694982 -16.214108 44.623862 -68.038565 -58.096750 -41.102382 34.298198 23.185207 21.496455 0.000000 0.000000 0.000000 7.125000 0.000000 0.000000 53.964289 44.137309 1.701418
-9.873739 16.287880 3.924400 -158.621691 -83.572887 154.556097 0.000000 0.000000 0.000000 -14.030069 -0.279539 -20.372565 10.379179 17.617640 60.748438 0.971610 -20.142606 -21.172597 0.654799 -5.174796 -14.408000 0.000000 0.000000 0.000000 19.195909 7.444635 -18.404954 -9.957140 -17.385640 59.344961 -3.047199 6.572457 -31.748359 -0.649366 5.154504 -14.349888 4.388286 -0.516305 13.136370 -0.706594 -0.152088 1.161598 -3.199395 -0.224363 -6.158885 2.453888 3.238166 2.705565 -2.026496 4.345601 -3.453994 -1.129330 2.174590 -1.426915 0.000000 0.000000 0.000000 32.696680 -10.268097 -38.447436 71.069417 -58.601620 43.682597 -16.269013 22.421893 -5.790876 0.000000 0.000000 0.000000 -7.125000 0.000000 0.000000 -33.912172 33.809080 -11.036777 0.000000 0.000000 0.000000 -27.694798 -16.215110 44.623274 -68.038398 -58.096720 -41.102239 34.305978 23.180089 21.497026 0.000000 0.000000 0.000000 7.125000 0.000000 0.000000 53.968926 44.136391 1.703561
-9.873646 16.287893 3.924400 -158.610806 -83.573585 154.545780 0.000000 0.000000 0.000000 -14.028947 -0.281446 -20.373025 10.379126 17.617613 60.748261 0.970612 -20.147241 -21.168263 0.652665 -5.166395 -14.384000 0.000000 0.000000 0.000000 19.196777 7.444158 -18.406346 -9.957180 -17.385664 59.345105 -3.047133 6.570133 -31.748252 -0.649977 5.156871 -14.356652 4.388934 -0.516840 13.133399 -0.705959 -0.152869 1.163364 -3.198928 -0.224657 -6.155416 2.448703 3.236811 2.702042 -2.020112 4.343735 -3.453393 -1.126318 2.173588 -1.426367 0.000000 0.000000 0.000000 32.696660 -10.271763 -38.447042 71.069103 -58.601573 43.682330 -16.270298 22.425192 -5.786455 0.000000 0.000000 0.000000 -7.125000 0.000000 0.000000 -33.911418 33.805127 -11.040439 0.000000 0.000000 0.000000 -27.694615 -16.216112 44.622686 -68.038231 -58.096690 -41.102095 34.313757 23.174970 21.497597 0.000000 0.000000 0.000000 7.125000 0.000000 0.000000 53.973564 44.135473 1.705705
-9.873552 16.287907 3.924400 -158.599922 -83.574283 154.535462 0.000000 0.000000 0.000000 -14.027825 -0.283352 -20.373486 10.379073 17.617586 60.748084 0.969613 -20.151875 -21.163929 0.650532 -5.157995 -14.360000 0.000000 0.000000 0.000000 19.197645 7.443680 -18.407739 -9.957221 -17.385687 59.345249 -3.047066 6.567809 -31.748145 -0.650588 5.159238 -14.363417 4.389582 -0.517374 13.130427 -0.705325 -0.153650 1.165130 -3.198460 -0.224951 -6.151947 2.443518 3.235455 2.698520 -2.013728 4.341868 -3.452792 -1.123307 2.172587 -1.425819 0.000000 0.000000 0.000000 32.696640 -10.275429 -38.446648 71.068789 -58.601526 43.682063 -16.271584 22.428491 -5.782034 0.000000 0.000000 0.000000 -7.125000 0.000000 0.000000 -33.910663 33.801174 -11.044102 0.000000 0.000000 0.000000 -27.694431 -16.217113 44.622099 -68.038064 -58.096660 -41.101951 34.321537 23.169852 21.498168 0.000000 0.000000 0.000000 7.125000 0.000000 0.000000 53.978202 44.134554 1.707849
